<mxfile host="app.diagrams.net" modified="2021-04-09T08:08:41.597Z" agent="5.0 (Windows NT 10.0; Win64; x64) AppleWebKit/537.36 (KHTML, like Gecko) Chrome/89.0.4389.114 Safari/537.36" etag="QXGAUNYWS9Qly7ZFWw1c" version="14.5.8" type="github">
  <diagram id="9i5PX-ZNCF16pBJ7eYph" name="Page-1">
    <mxGraphModel dx="4572" dy="1800" grid="1" gridSize="10" guides="1" tooltips="1" connect="1" arrows="1" fold="1" page="1" pageScale="1" pageWidth="1100" pageHeight="1700" math="0" shadow="0">
      <root>
        <mxCell id="0" />
        <mxCell id="1" parent="0" />
        <mxCell id="RGW8HKInZTyzvHTBlCaB-73" value="&lt;b&gt;&lt;font style=&quot;font-size: 15px&quot;&gt;&amp;nbsp; Main Function&lt;/font&gt;&lt;/b&gt;" style="rounded=0;whiteSpace=wrap;html=1;align=left;" vertex="1" parent="1">
          <mxGeometry x="720" y="30" width="180" height="100" as="geometry" />
        </mxCell>
        <mxCell id="RGW8HKInZTyzvHTBlCaB-74" value="" style="rounded=0;whiteSpace=wrap;html=1;imageWidth=1;imageHeight=1;" vertex="1" parent="1">
          <mxGeometry x="850" y="50" width="40" height="50" as="geometry" />
        </mxCell>
        <mxCell id="RGW8HKInZTyzvHTBlCaB-75" value="" style="rounded=0;whiteSpace=wrap;html=1;imageWidth=1;imageHeight=1;" vertex="1" parent="1">
          <mxGeometry x="840" y="60" width="20" height="10" as="geometry" />
        </mxCell>
        <mxCell id="RGW8HKInZTyzvHTBlCaB-76" value="" style="rounded=0;whiteSpace=wrap;html=1;imageWidth=1;imageHeight=1;" vertex="1" parent="1">
          <mxGeometry x="840" y="80" width="20" height="10" as="geometry" />
        </mxCell>
        <mxCell id="RGW8HKInZTyzvHTBlCaB-82" value="&lt;b&gt;&lt;font style=&quot;font-size: 15px&quot;&gt;&amp;nbsp; &amp;nbsp; &amp;nbsp; Basic &lt;br&gt;&amp;nbsp; &amp;nbsp; &amp;nbsp; operations&lt;/font&gt;&lt;/b&gt;" style="rounded=0;whiteSpace=wrap;html=1;align=left;" vertex="1" parent="1">
          <mxGeometry x="-40" y="365" width="180" height="100" as="geometry" />
        </mxCell>
        <mxCell id="RGW8HKInZTyzvHTBlCaB-83" value="" style="rounded=0;whiteSpace=wrap;html=1;imageWidth=1;imageHeight=1;" vertex="1" parent="1">
          <mxGeometry x="90" y="390" width="40" height="50" as="geometry" />
        </mxCell>
        <mxCell id="RGW8HKInZTyzvHTBlCaB-84" value="" style="rounded=0;whiteSpace=wrap;html=1;imageWidth=1;imageHeight=1;" vertex="1" parent="1">
          <mxGeometry x="80" y="400" width="20" height="10" as="geometry" />
        </mxCell>
        <mxCell id="RGW8HKInZTyzvHTBlCaB-85" value="" style="rounded=0;whiteSpace=wrap;html=1;imageWidth=1;imageHeight=1;" vertex="1" parent="1">
          <mxGeometry x="80" y="420" width="20" height="10" as="geometry" />
        </mxCell>
        <mxCell id="RGW8HKInZTyzvHTBlCaB-94" value="&lt;span style=&quot;font-size: 15px&quot;&gt;&lt;b&gt;&amp;nbsp; &amp;nbsp; Addition&lt;/b&gt;&lt;/span&gt;" style="rounded=0;whiteSpace=wrap;html=1;align=left;" vertex="1" parent="1">
          <mxGeometry x="-320" y="640" width="180" height="100" as="geometry" />
        </mxCell>
        <mxCell id="RGW8HKInZTyzvHTBlCaB-95" value="" style="rounded=0;whiteSpace=wrap;html=1;imageWidth=1;imageHeight=1;" vertex="1" parent="1">
          <mxGeometry x="-190" y="660" width="40" height="50" as="geometry" />
        </mxCell>
        <mxCell id="RGW8HKInZTyzvHTBlCaB-96" value="" style="rounded=0;whiteSpace=wrap;html=1;imageWidth=1;imageHeight=1;" vertex="1" parent="1">
          <mxGeometry x="-200" y="670" width="20" height="10" as="geometry" />
        </mxCell>
        <mxCell id="RGW8HKInZTyzvHTBlCaB-97" value="" style="rounded=0;whiteSpace=wrap;html=1;imageWidth=1;imageHeight=1;" vertex="1" parent="1">
          <mxGeometry x="-200" y="690" width="20" height="10" as="geometry" />
        </mxCell>
        <mxCell id="RGW8HKInZTyzvHTBlCaB-98" value="&lt;div&gt;&lt;b&gt;&lt;font style=&quot;font-size: 15px&quot;&gt;&amp;nbsp; &amp;nbsp;Subtraction&lt;/font&gt;&lt;/b&gt;&lt;/div&gt;" style="rounded=0;whiteSpace=wrap;html=1;align=left;" vertex="1" parent="1">
          <mxGeometry x="-170" y="780" width="180" height="100" as="geometry" />
        </mxCell>
        <mxCell id="RGW8HKInZTyzvHTBlCaB-99" value="" style="rounded=0;whiteSpace=wrap;html=1;imageWidth=1;imageHeight=1;" vertex="1" parent="1">
          <mxGeometry x="-40" y="800" width="40" height="50" as="geometry" />
        </mxCell>
        <mxCell id="RGW8HKInZTyzvHTBlCaB-100" value="" style="rounded=0;whiteSpace=wrap;html=1;imageWidth=1;imageHeight=1;" vertex="1" parent="1">
          <mxGeometry x="-50" y="810" width="20" height="10" as="geometry" />
        </mxCell>
        <mxCell id="RGW8HKInZTyzvHTBlCaB-101" value="" style="rounded=0;whiteSpace=wrap;html=1;imageWidth=1;imageHeight=1;" vertex="1" parent="1">
          <mxGeometry x="-50" y="830" width="20" height="10" as="geometry" />
        </mxCell>
        <mxCell id="RGW8HKInZTyzvHTBlCaB-102" value="&lt;span style=&quot;font-size: 15px&quot;&gt;&lt;b&gt;&amp;nbsp; &amp;nbsp; Multiplication&lt;/b&gt;&lt;/span&gt;" style="rounded=0;whiteSpace=wrap;html=1;align=left;" vertex="1" parent="1">
          <mxGeometry x="60" y="780" width="180" height="100" as="geometry" />
        </mxCell>
        <mxCell id="RGW8HKInZTyzvHTBlCaB-103" value="" style="rounded=0;whiteSpace=wrap;html=1;imageWidth=1;imageHeight=1;" vertex="1" parent="1">
          <mxGeometry x="190" y="800" width="40" height="50" as="geometry" />
        </mxCell>
        <mxCell id="RGW8HKInZTyzvHTBlCaB-104" value="" style="rounded=0;whiteSpace=wrap;html=1;imageWidth=1;imageHeight=1;" vertex="1" parent="1">
          <mxGeometry x="180" y="810" width="20" height="10" as="geometry" />
        </mxCell>
        <mxCell id="RGW8HKInZTyzvHTBlCaB-105" value="" style="rounded=0;whiteSpace=wrap;html=1;imageWidth=1;imageHeight=1;" vertex="1" parent="1">
          <mxGeometry x="180" y="830" width="20" height="10" as="geometry" />
        </mxCell>
        <mxCell id="RGW8HKInZTyzvHTBlCaB-106" value="&lt;span style=&quot;font-size: 15px&quot;&gt;&lt;b&gt;&amp;nbsp; &amp;nbsp; Division&lt;/b&gt;&lt;/span&gt;" style="rounded=0;whiteSpace=wrap;html=1;align=left;" vertex="1" parent="1">
          <mxGeometry x="210" y="625" width="180" height="100" as="geometry" />
        </mxCell>
        <mxCell id="RGW8HKInZTyzvHTBlCaB-107" value="" style="rounded=0;whiteSpace=wrap;html=1;imageWidth=1;imageHeight=1;" vertex="1" parent="1">
          <mxGeometry x="340" y="645" width="40" height="50" as="geometry" />
        </mxCell>
        <mxCell id="RGW8HKInZTyzvHTBlCaB-108" value="" style="rounded=0;whiteSpace=wrap;html=1;imageWidth=1;imageHeight=1;" vertex="1" parent="1">
          <mxGeometry x="330" y="655" width="20" height="10" as="geometry" />
        </mxCell>
        <mxCell id="RGW8HKInZTyzvHTBlCaB-109" value="" style="rounded=0;whiteSpace=wrap;html=1;imageWidth=1;imageHeight=1;" vertex="1" parent="1">
          <mxGeometry x="330" y="675" width="20" height="10" as="geometry" />
        </mxCell>
        <mxCell id="RGW8HKInZTyzvHTBlCaB-120" value="" style="shape=providedRequiredInterface;html=1;verticalLabelPosition=bottom;direction=north;" vertex="1" parent="1">
          <mxGeometry x="100" y="650" width="20" height="20" as="geometry" />
        </mxCell>
        <mxCell id="RGW8HKInZTyzvHTBlCaB-121" value="" style="endArrow=none;html=1;exitX=1;exitY=0.5;exitDx=0;exitDy=0;exitPerimeter=0;entryX=0.5;entryY=1;entryDx=0;entryDy=0;" edge="1" parent="1" source="RGW8HKInZTyzvHTBlCaB-120" target="RGW8HKInZTyzvHTBlCaB-82">
          <mxGeometry width="50" height="50" relative="1" as="geometry">
            <mxPoint x="130" y="750" as="sourcePoint" />
            <mxPoint x="180" y="700" as="targetPoint" />
          </mxGeometry>
        </mxCell>
        <mxCell id="RGW8HKInZTyzvHTBlCaB-123" value="" style="endArrow=halfCircle;html=1;exitX=0;exitY=0.5;exitDx=0;exitDy=0;exitPerimeter=0;endFill=0;entryX=0.5;entryY=0;entryDx=0;entryDy=0;" edge="1" parent="1" source="RGW8HKInZTyzvHTBlCaB-120" target="RGW8HKInZTyzvHTBlCaB-102">
          <mxGeometry width="50" height="50" relative="1" as="geometry">
            <mxPoint x="50" y="710" as="sourcePoint" />
            <mxPoint x="100" y="660" as="targetPoint" />
          </mxGeometry>
        </mxCell>
        <mxCell id="RGW8HKInZTyzvHTBlCaB-124" value="" style="shape=providedRequiredInterface;html=1;verticalLabelPosition=bottom;direction=north;" vertex="1" parent="1">
          <mxGeometry x="-110" y="540" width="20" height="20" as="geometry" />
        </mxCell>
        <mxCell id="RGW8HKInZTyzvHTBlCaB-125" value="" style="endArrow=none;html=1;exitX=1;exitY=0.5;exitDx=0;exitDy=0;exitPerimeter=0;entryX=0.5;entryY=1;entryDx=0;entryDy=0;" edge="1" parent="1" source="RGW8HKInZTyzvHTBlCaB-124" target="RGW8HKInZTyzvHTBlCaB-82">
          <mxGeometry width="50" height="50" relative="1" as="geometry">
            <mxPoint x="-80" y="680" as="sourcePoint" />
            <mxPoint x="-160" y="395" as="targetPoint" />
          </mxGeometry>
        </mxCell>
        <mxCell id="RGW8HKInZTyzvHTBlCaB-126" value="" style="endArrow=halfCircle;html=1;exitX=0;exitY=0.5;exitDx=0;exitDy=0;exitPerimeter=0;endFill=0;entryX=0.5;entryY=0;entryDx=0;entryDy=0;" edge="1" parent="1" source="RGW8HKInZTyzvHTBlCaB-124" target="RGW8HKInZTyzvHTBlCaB-94">
          <mxGeometry width="50" height="50" relative="1" as="geometry">
            <mxPoint x="50" y="570" as="sourcePoint" />
            <mxPoint x="-180" y="580" as="targetPoint" />
          </mxGeometry>
        </mxCell>
        <mxCell id="RGW8HKInZTyzvHTBlCaB-129" value="" style="shape=providedRequiredInterface;html=1;verticalLabelPosition=bottom;direction=north;" vertex="1" parent="1">
          <mxGeometry x="-30" y="650" width="20" height="20" as="geometry" />
        </mxCell>
        <mxCell id="RGW8HKInZTyzvHTBlCaB-130" value="" style="endArrow=halfCircle;html=1;exitX=0;exitY=0.5;exitDx=0;exitDy=0;exitPerimeter=0;endFill=0;entryX=0.5;entryY=0;entryDx=0;entryDy=0;" edge="1" parent="1" source="RGW8HKInZTyzvHTBlCaB-129" target="RGW8HKInZTyzvHTBlCaB-98">
          <mxGeometry width="50" height="50" relative="1" as="geometry">
            <mxPoint x="170" y="720" as="sourcePoint" />
            <mxPoint x="-60" y="730" as="targetPoint" />
          </mxGeometry>
        </mxCell>
        <mxCell id="RGW8HKInZTyzvHTBlCaB-131" value="" style="endArrow=none;html=1;exitX=1;exitY=0.5;exitDx=0;exitDy=0;exitPerimeter=0;entryX=0.5;entryY=1;entryDx=0;entryDy=0;" edge="1" parent="1" source="RGW8HKInZTyzvHTBlCaB-129" target="RGW8HKInZTyzvHTBlCaB-82">
          <mxGeometry width="50" height="50" relative="1" as="geometry">
            <mxPoint x="50" y="680" as="sourcePoint" />
            <mxPoint x="100" y="630" as="targetPoint" />
          </mxGeometry>
        </mxCell>
        <mxCell id="RGW8HKInZTyzvHTBlCaB-132" value="" style="shape=providedRequiredInterface;html=1;verticalLabelPosition=bottom;direction=north;" vertex="1" parent="1">
          <mxGeometry x="200" y="550" width="20" height="20" as="geometry" />
        </mxCell>
        <mxCell id="RGW8HKInZTyzvHTBlCaB-133" value="" style="endArrow=halfCircle;html=1;exitX=0;exitY=0.5;exitDx=0;exitDy=0;exitPerimeter=0;endFill=0;entryX=0.5;entryY=0;entryDx=0;entryDy=0;" edge="1" parent="1" source="RGW8HKInZTyzvHTBlCaB-132">
          <mxGeometry width="50" height="50" relative="1" as="geometry">
            <mxPoint x="400" y="600" as="sourcePoint" />
            <mxPoint x="310" y="625" as="targetPoint" />
          </mxGeometry>
        </mxCell>
        <mxCell id="RGW8HKInZTyzvHTBlCaB-134" value="" style="endArrow=none;html=1;entryX=0.5;entryY=1;entryDx=0;entryDy=0;exitX=1;exitY=0.5;exitDx=0;exitDy=0;exitPerimeter=0;" edge="1" parent="1" source="RGW8HKInZTyzvHTBlCaB-132" target="RGW8HKInZTyzvHTBlCaB-82">
          <mxGeometry width="50" height="50" relative="1" as="geometry">
            <mxPoint x="50" y="680" as="sourcePoint" />
            <mxPoint x="100" y="630" as="targetPoint" />
          </mxGeometry>
        </mxCell>
        <mxCell id="RGW8HKInZTyzvHTBlCaB-197" value="&lt;b&gt;&lt;font style=&quot;font-size: 15px&quot;&gt;&amp;nbsp; &amp;nbsp; &amp;nbsp; Financial&lt;br&gt;&amp;nbsp; &amp;nbsp; &amp;nbsp; operations&lt;/font&gt;&lt;/b&gt;" style="rounded=0;whiteSpace=wrap;html=1;align=left;" vertex="1" parent="1">
          <mxGeometry x="700" y="365" width="180" height="100" as="geometry" />
        </mxCell>
        <mxCell id="RGW8HKInZTyzvHTBlCaB-198" value="" style="rounded=0;whiteSpace=wrap;html=1;imageWidth=1;imageHeight=1;" vertex="1" parent="1">
          <mxGeometry x="830" y="390" width="40" height="50" as="geometry" />
        </mxCell>
        <mxCell id="RGW8HKInZTyzvHTBlCaB-199" value="" style="rounded=0;whiteSpace=wrap;html=1;imageWidth=1;imageHeight=1;" vertex="1" parent="1">
          <mxGeometry x="820" y="400" width="20" height="10" as="geometry" />
        </mxCell>
        <mxCell id="RGW8HKInZTyzvHTBlCaB-200" value="" style="rounded=0;whiteSpace=wrap;html=1;imageWidth=1;imageHeight=1;" vertex="1" parent="1">
          <mxGeometry x="820" y="420" width="20" height="10" as="geometry" />
        </mxCell>
        <mxCell id="RGW8HKInZTyzvHTBlCaB-201" value="&lt;span style=&quot;font-size: 15px&quot;&gt;&lt;b&gt;&amp;nbsp; &amp;nbsp; Simple&lt;br&gt;&amp;nbsp; &amp;nbsp; &amp;nbsp;Interest&lt;/b&gt;&lt;/span&gt;" style="rounded=0;whiteSpace=wrap;html=1;align=left;" vertex="1" parent="1">
          <mxGeometry x="470" y="625" width="180" height="100" as="geometry" />
        </mxCell>
        <mxCell id="RGW8HKInZTyzvHTBlCaB-202" value="" style="rounded=0;whiteSpace=wrap;html=1;imageWidth=1;imageHeight=1;" vertex="1" parent="1">
          <mxGeometry x="600" y="645" width="40" height="50" as="geometry" />
        </mxCell>
        <mxCell id="RGW8HKInZTyzvHTBlCaB-203" value="" style="rounded=0;whiteSpace=wrap;html=1;imageWidth=1;imageHeight=1;" vertex="1" parent="1">
          <mxGeometry x="590" y="655" width="20" height="10" as="geometry" />
        </mxCell>
        <mxCell id="RGW8HKInZTyzvHTBlCaB-204" value="" style="rounded=0;whiteSpace=wrap;html=1;imageWidth=1;imageHeight=1;" vertex="1" parent="1">
          <mxGeometry x="590" y="675" width="20" height="10" as="geometry" />
        </mxCell>
        <mxCell id="RGW8HKInZTyzvHTBlCaB-205" value="&lt;span style=&quot;font-size: 15px&quot;&gt;&lt;b&gt;&amp;nbsp; &amp;nbsp;Compound&amp;nbsp;&lt;br&gt;&amp;nbsp; &amp;nbsp;Interest&lt;br&gt;&lt;/b&gt;&lt;/span&gt;" style="rounded=0;whiteSpace=wrap;html=1;align=left;" vertex="1" parent="1">
          <mxGeometry x="690" y="765" width="180" height="100" as="geometry" />
        </mxCell>
        <mxCell id="RGW8HKInZTyzvHTBlCaB-206" value="" style="rounded=0;whiteSpace=wrap;html=1;imageWidth=1;imageHeight=1;" vertex="1" parent="1">
          <mxGeometry x="820" y="785" width="40" height="50" as="geometry" />
        </mxCell>
        <mxCell id="RGW8HKInZTyzvHTBlCaB-207" value="" style="rounded=0;whiteSpace=wrap;html=1;imageWidth=1;imageHeight=1;" vertex="1" parent="1">
          <mxGeometry x="810" y="795" width="20" height="10" as="geometry" />
        </mxCell>
        <mxCell id="RGW8HKInZTyzvHTBlCaB-208" value="" style="rounded=0;whiteSpace=wrap;html=1;imageWidth=1;imageHeight=1;" vertex="1" parent="1">
          <mxGeometry x="810" y="815" width="20" height="10" as="geometry" />
        </mxCell>
        <mxCell id="RGW8HKInZTyzvHTBlCaB-209" value="&lt;span style=&quot;font-size: 15px&quot;&gt;&lt;b&gt;&amp;nbsp; &amp;nbsp;Total&amp;nbsp; &lt;br&gt;&amp;nbsp; &amp;nbsp;Amount&lt;br&gt;&lt;/b&gt;&lt;/span&gt;&amp;nbsp; &amp;nbsp;&amp;nbsp;" style="rounded=0;whiteSpace=wrap;html=1;align=left;" vertex="1" parent="1">
          <mxGeometry x="940" y="625" width="180" height="100" as="geometry" />
        </mxCell>
        <mxCell id="RGW8HKInZTyzvHTBlCaB-210" value="" style="rounded=0;whiteSpace=wrap;html=1;imageWidth=1;imageHeight=1;" vertex="1" parent="1">
          <mxGeometry x="1070" y="645" width="40" height="50" as="geometry" />
        </mxCell>
        <mxCell id="RGW8HKInZTyzvHTBlCaB-211" value="" style="rounded=0;whiteSpace=wrap;html=1;imageWidth=1;imageHeight=1;" vertex="1" parent="1">
          <mxGeometry x="1060" y="655" width="20" height="10" as="geometry" />
        </mxCell>
        <mxCell id="RGW8HKInZTyzvHTBlCaB-212" value="" style="rounded=0;whiteSpace=wrap;html=1;imageWidth=1;imageHeight=1;" vertex="1" parent="1">
          <mxGeometry x="1060" y="675" width="20" height="10" as="geometry" />
        </mxCell>
        <mxCell id="RGW8HKInZTyzvHTBlCaB-213" value="" style="shape=providedRequiredInterface;html=1;verticalLabelPosition=bottom;direction=north;" vertex="1" parent="1">
          <mxGeometry x="940" y="540" width="20" height="20" as="geometry" />
        </mxCell>
        <mxCell id="RGW8HKInZTyzvHTBlCaB-214" value="" style="endArrow=none;html=1;exitX=1;exitY=0.5;exitDx=0;exitDy=0;exitPerimeter=0;entryX=0.5;entryY=1;entryDx=0;entryDy=0;" edge="1" parent="1" source="RGW8HKInZTyzvHTBlCaB-213" target="RGW8HKInZTyzvHTBlCaB-197">
          <mxGeometry width="50" height="50" relative="1" as="geometry">
            <mxPoint x="900" y="810" as="sourcePoint" />
            <mxPoint x="950" y="760" as="targetPoint" />
          </mxGeometry>
        </mxCell>
        <mxCell id="RGW8HKInZTyzvHTBlCaB-215" value="" style="endArrow=halfCircle;html=1;exitX=0;exitY=0.5;exitDx=0;exitDy=0;exitPerimeter=0;endFill=0;entryX=0.5;entryY=0;entryDx=0;entryDy=0;" edge="1" parent="1" source="RGW8HKInZTyzvHTBlCaB-213" target="RGW8HKInZTyzvHTBlCaB-209">
          <mxGeometry width="50" height="50" relative="1" as="geometry">
            <mxPoint x="820" y="770" as="sourcePoint" />
            <mxPoint x="870" y="720" as="targetPoint" />
          </mxGeometry>
        </mxCell>
        <mxCell id="RGW8HKInZTyzvHTBlCaB-216" value="" style="shape=providedRequiredInterface;html=1;verticalLabelPosition=bottom;direction=north;" vertex="1" parent="1">
          <mxGeometry x="650" y="540" width="20" height="20" as="geometry" />
        </mxCell>
        <mxCell id="RGW8HKInZTyzvHTBlCaB-217" value="" style="endArrow=none;html=1;exitX=1;exitY=0.5;exitDx=0;exitDy=0;exitPerimeter=0;entryX=0.5;entryY=1;entryDx=0;entryDy=0;" edge="1" parent="1" source="RGW8HKInZTyzvHTBlCaB-216" target="RGW8HKInZTyzvHTBlCaB-197">
          <mxGeometry width="50" height="50" relative="1" as="geometry">
            <mxPoint x="690" y="740" as="sourcePoint" />
            <mxPoint x="610" y="455" as="targetPoint" />
          </mxGeometry>
        </mxCell>
        <mxCell id="RGW8HKInZTyzvHTBlCaB-218" value="" style="endArrow=halfCircle;html=1;exitX=0;exitY=0.5;exitDx=0;exitDy=0;exitPerimeter=0;endFill=0;entryX=0.5;entryY=0;entryDx=0;entryDy=0;" edge="1" parent="1" source="RGW8HKInZTyzvHTBlCaB-216" target="RGW8HKInZTyzvHTBlCaB-201">
          <mxGeometry width="50" height="50" relative="1" as="geometry">
            <mxPoint x="820" y="630" as="sourcePoint" />
            <mxPoint x="590" y="640" as="targetPoint" />
          </mxGeometry>
        </mxCell>
        <mxCell id="RGW8HKInZTyzvHTBlCaB-219" value="" style="shape=providedRequiredInterface;html=1;verticalLabelPosition=bottom;direction=north;" vertex="1" parent="1">
          <mxGeometry x="770" y="625" width="20" height="20" as="geometry" />
        </mxCell>
        <mxCell id="RGW8HKInZTyzvHTBlCaB-220" value="" style="endArrow=halfCircle;html=1;exitX=0;exitY=0.5;exitDx=0;exitDy=0;exitPerimeter=0;endFill=0;entryX=0.5;entryY=0;entryDx=0;entryDy=0;" edge="1" parent="1" source="RGW8HKInZTyzvHTBlCaB-219" target="RGW8HKInZTyzvHTBlCaB-205">
          <mxGeometry width="50" height="50" relative="1" as="geometry">
            <mxPoint x="940" y="780" as="sourcePoint" />
            <mxPoint x="710" y="790" as="targetPoint" />
          </mxGeometry>
        </mxCell>
        <mxCell id="RGW8HKInZTyzvHTBlCaB-221" value="" style="endArrow=none;html=1;exitX=1;exitY=0.5;exitDx=0;exitDy=0;exitPerimeter=0;entryX=0.5;entryY=1;entryDx=0;entryDy=0;" edge="1" parent="1" source="RGW8HKInZTyzvHTBlCaB-219" target="RGW8HKInZTyzvHTBlCaB-197">
          <mxGeometry width="50" height="50" relative="1" as="geometry">
            <mxPoint x="820" y="740" as="sourcePoint" />
            <mxPoint x="870" y="690" as="targetPoint" />
          </mxGeometry>
        </mxCell>
        <mxCell id="RGW8HKInZTyzvHTBlCaB-254" value="&lt;b&gt;&lt;font style=&quot;font-size: 15px&quot;&gt;&amp;nbsp; &amp;nbsp; &amp;nbsp; Other&lt;br&gt;&amp;nbsp; &amp;nbsp; &amp;nbsp; operations&lt;/font&gt;&lt;/b&gt;" style="rounded=0;whiteSpace=wrap;html=1;align=left;" vertex="1" parent="1">
          <mxGeometry x="1430" y="355" width="180" height="100" as="geometry" />
        </mxCell>
        <mxCell id="RGW8HKInZTyzvHTBlCaB-255" value="" style="rounded=0;whiteSpace=wrap;html=1;imageWidth=1;imageHeight=1;" vertex="1" parent="1">
          <mxGeometry x="1560" y="380" width="40" height="50" as="geometry" />
        </mxCell>
        <mxCell id="RGW8HKInZTyzvHTBlCaB-256" value="" style="rounded=0;whiteSpace=wrap;html=1;imageWidth=1;imageHeight=1;" vertex="1" parent="1">
          <mxGeometry x="1550" y="390" width="20" height="10" as="geometry" />
        </mxCell>
        <mxCell id="RGW8HKInZTyzvHTBlCaB-257" value="" style="rounded=0;whiteSpace=wrap;html=1;imageWidth=1;imageHeight=1;" vertex="1" parent="1">
          <mxGeometry x="1550" y="410" width="20" height="10" as="geometry" />
        </mxCell>
        <mxCell id="RGW8HKInZTyzvHTBlCaB-258" value="&lt;span style=&quot;font-size: 15px&quot;&gt;&lt;b&gt;&amp;nbsp; &amp;nbsp; Factorial&lt;/b&gt;&lt;/span&gt;" style="rounded=0;whiteSpace=wrap;html=1;align=left;" vertex="1" parent="1">
          <mxGeometry x="1190" y="625" width="180" height="100" as="geometry" />
        </mxCell>
        <mxCell id="RGW8HKInZTyzvHTBlCaB-259" value="" style="rounded=0;whiteSpace=wrap;html=1;imageWidth=1;imageHeight=1;" vertex="1" parent="1">
          <mxGeometry x="1320" y="645" width="40" height="50" as="geometry" />
        </mxCell>
        <mxCell id="RGW8HKInZTyzvHTBlCaB-260" value="" style="rounded=0;whiteSpace=wrap;html=1;imageWidth=1;imageHeight=1;" vertex="1" parent="1">
          <mxGeometry x="1310" y="655" width="20" height="10" as="geometry" />
        </mxCell>
        <mxCell id="RGW8HKInZTyzvHTBlCaB-261" value="" style="rounded=0;whiteSpace=wrap;html=1;imageWidth=1;imageHeight=1;" vertex="1" parent="1">
          <mxGeometry x="1310" y="675" width="20" height="10" as="geometry" />
        </mxCell>
        <mxCell id="RGW8HKInZTyzvHTBlCaB-262" value="&lt;div&gt;&lt;b&gt;&lt;font style=&quot;font-size: 15px&quot;&gt;&amp;nbsp; &amp;nbsp;Power&lt;/font&gt;&lt;/b&gt;&lt;/div&gt;" style="rounded=0;whiteSpace=wrap;html=1;align=left;" vertex="1" parent="1">
          <mxGeometry x="1370" y="750" width="180" height="100" as="geometry" />
        </mxCell>
        <mxCell id="RGW8HKInZTyzvHTBlCaB-263" value="" style="rounded=0;whiteSpace=wrap;html=1;imageWidth=1;imageHeight=1;" vertex="1" parent="1">
          <mxGeometry x="1500" y="770" width="40" height="50" as="geometry" />
        </mxCell>
        <mxCell id="RGW8HKInZTyzvHTBlCaB-264" value="" style="rounded=0;whiteSpace=wrap;html=1;imageWidth=1;imageHeight=1;" vertex="1" parent="1">
          <mxGeometry x="1490" y="780" width="20" height="10" as="geometry" />
        </mxCell>
        <mxCell id="RGW8HKInZTyzvHTBlCaB-265" value="" style="rounded=0;whiteSpace=wrap;html=1;imageWidth=1;imageHeight=1;" vertex="1" parent="1">
          <mxGeometry x="1490" y="800" width="20" height="10" as="geometry" />
        </mxCell>
        <mxCell id="RGW8HKInZTyzvHTBlCaB-266" value="&lt;span style=&quot;font-size: 15px&quot;&gt;&lt;b&gt;&amp;nbsp; &amp;nbsp; Logarithm&lt;/b&gt;&lt;/span&gt;" style="rounded=0;whiteSpace=wrap;html=1;align=left;" vertex="1" parent="1">
          <mxGeometry x="1620" y="750" width="180" height="100" as="geometry" />
        </mxCell>
        <mxCell id="RGW8HKInZTyzvHTBlCaB-267" value="" style="rounded=0;whiteSpace=wrap;html=1;imageWidth=1;imageHeight=1;" vertex="1" parent="1">
          <mxGeometry x="1750" y="770" width="40" height="50" as="geometry" />
        </mxCell>
        <mxCell id="RGW8HKInZTyzvHTBlCaB-268" value="" style="rounded=0;whiteSpace=wrap;html=1;imageWidth=1;imageHeight=1;" vertex="1" parent="1">
          <mxGeometry x="1740" y="780" width="20" height="10" as="geometry" />
        </mxCell>
        <mxCell id="RGW8HKInZTyzvHTBlCaB-269" value="" style="rounded=0;whiteSpace=wrap;html=1;imageWidth=1;imageHeight=1;" vertex="1" parent="1">
          <mxGeometry x="1740" y="800" width="20" height="10" as="geometry" />
        </mxCell>
        <mxCell id="RGW8HKInZTyzvHTBlCaB-270" value="&lt;span style=&quot;font-size: 15px&quot;&gt;&lt;b&gt;&amp;nbsp; &amp;nbsp; exponential&lt;/b&gt;&lt;/span&gt;" style="rounded=0;whiteSpace=wrap;html=1;align=left;" vertex="1" parent="1">
          <mxGeometry x="1790" y="630" width="180" height="100" as="geometry" />
        </mxCell>
        <mxCell id="RGW8HKInZTyzvHTBlCaB-271" value="" style="rounded=0;whiteSpace=wrap;html=1;imageWidth=1;imageHeight=1;" vertex="1" parent="1">
          <mxGeometry x="1920" y="650" width="40" height="50" as="geometry" />
        </mxCell>
        <mxCell id="RGW8HKInZTyzvHTBlCaB-272" value="" style="rounded=0;whiteSpace=wrap;html=1;imageWidth=1;imageHeight=1;" vertex="1" parent="1">
          <mxGeometry x="1910" y="660" width="20" height="10" as="geometry" />
        </mxCell>
        <mxCell id="RGW8HKInZTyzvHTBlCaB-273" value="" style="rounded=0;whiteSpace=wrap;html=1;imageWidth=1;imageHeight=1;" vertex="1" parent="1">
          <mxGeometry x="1910" y="680" width="20" height="10" as="geometry" />
        </mxCell>
        <mxCell id="RGW8HKInZTyzvHTBlCaB-274" value="" style="shape=providedRequiredInterface;html=1;verticalLabelPosition=bottom;direction=north;" vertex="1" parent="1">
          <mxGeometry x="1650" y="640" width="20" height="20" as="geometry" />
        </mxCell>
        <mxCell id="RGW8HKInZTyzvHTBlCaB-275" value="" style="endArrow=none;html=1;exitX=1;exitY=0.5;exitDx=0;exitDy=0;exitPerimeter=0;entryX=0.5;entryY=1;entryDx=0;entryDy=0;" edge="1" parent="1" source="RGW8HKInZTyzvHTBlCaB-274" target="RGW8HKInZTyzvHTBlCaB-254">
          <mxGeometry width="50" height="50" relative="1" as="geometry">
            <mxPoint x="1770" y="765" as="sourcePoint" />
            <mxPoint x="1820" y="715" as="targetPoint" />
          </mxGeometry>
        </mxCell>
        <mxCell id="RGW8HKInZTyzvHTBlCaB-276" value="" style="endArrow=halfCircle;html=1;exitX=0;exitY=0.5;exitDx=0;exitDy=0;exitPerimeter=0;endFill=0;entryX=0.5;entryY=0;entryDx=0;entryDy=0;" edge="1" parent="1" source="RGW8HKInZTyzvHTBlCaB-274" target="RGW8HKInZTyzvHTBlCaB-266">
          <mxGeometry width="50" height="50" relative="1" as="geometry">
            <mxPoint x="1690" y="725" as="sourcePoint" />
            <mxPoint x="1740" y="675" as="targetPoint" />
          </mxGeometry>
        </mxCell>
        <mxCell id="RGW8HKInZTyzvHTBlCaB-277" value="" style="shape=providedRequiredInterface;html=1;verticalLabelPosition=bottom;direction=north;" vertex="1" parent="1">
          <mxGeometry x="1330" y="545" width="20" height="20" as="geometry" />
        </mxCell>
        <mxCell id="RGW8HKInZTyzvHTBlCaB-278" value="" style="endArrow=none;html=1;exitX=1;exitY=0.5;exitDx=0;exitDy=0;exitPerimeter=0;entryX=0.5;entryY=1;entryDx=0;entryDy=0;" edge="1" parent="1" source="RGW8HKInZTyzvHTBlCaB-277" target="RGW8HKInZTyzvHTBlCaB-254">
          <mxGeometry width="50" height="50" relative="1" as="geometry">
            <mxPoint x="1560" y="695" as="sourcePoint" />
            <mxPoint x="1480" y="410" as="targetPoint" />
          </mxGeometry>
        </mxCell>
        <mxCell id="RGW8HKInZTyzvHTBlCaB-279" value="" style="endArrow=halfCircle;html=1;exitX=0;exitY=0.5;exitDx=0;exitDy=0;exitPerimeter=0;endFill=0;entryX=0.5;entryY=0;entryDx=0;entryDy=0;" edge="1" parent="1" source="RGW8HKInZTyzvHTBlCaB-277" target="RGW8HKInZTyzvHTBlCaB-258">
          <mxGeometry width="50" height="50" relative="1" as="geometry">
            <mxPoint x="1690" y="585" as="sourcePoint" />
            <mxPoint x="1460" y="595" as="targetPoint" />
          </mxGeometry>
        </mxCell>
        <mxCell id="RGW8HKInZTyzvHTBlCaB-280" value="" style="shape=providedRequiredInterface;html=1;verticalLabelPosition=bottom;direction=north;" vertex="1" parent="1">
          <mxGeometry x="1470" y="640" width="20" height="20" as="geometry" />
        </mxCell>
        <mxCell id="RGW8HKInZTyzvHTBlCaB-281" value="" style="endArrow=halfCircle;html=1;exitX=0;exitY=0.5;exitDx=0;exitDy=0;exitPerimeter=0;endFill=0;entryX=0.5;entryY=0;entryDx=0;entryDy=0;" edge="1" parent="1" source="RGW8HKInZTyzvHTBlCaB-280" target="RGW8HKInZTyzvHTBlCaB-262">
          <mxGeometry width="50" height="50" relative="1" as="geometry">
            <mxPoint x="1810" y="735" as="sourcePoint" />
            <mxPoint x="1580" y="745" as="targetPoint" />
          </mxGeometry>
        </mxCell>
        <mxCell id="RGW8HKInZTyzvHTBlCaB-282" value="" style="endArrow=none;html=1;exitX=1;exitY=0.5;exitDx=0;exitDy=0;exitPerimeter=0;entryX=0.5;entryY=1;entryDx=0;entryDy=0;" edge="1" parent="1" source="RGW8HKInZTyzvHTBlCaB-280" target="RGW8HKInZTyzvHTBlCaB-254">
          <mxGeometry width="50" height="50" relative="1" as="geometry">
            <mxPoint x="1690" y="695" as="sourcePoint" />
            <mxPoint x="1740" y="645" as="targetPoint" />
          </mxGeometry>
        </mxCell>
        <mxCell id="RGW8HKInZTyzvHTBlCaB-283" value="" style="shape=providedRequiredInterface;html=1;verticalLabelPosition=bottom;direction=north;" vertex="1" parent="1">
          <mxGeometry x="1740" y="545" width="20" height="20" as="geometry" />
        </mxCell>
        <mxCell id="RGW8HKInZTyzvHTBlCaB-284" value="" style="endArrow=halfCircle;html=1;exitX=0;exitY=0.5;exitDx=0;exitDy=0;exitPerimeter=0;endFill=0;entryX=0.5;entryY=0;entryDx=0;entryDy=0;" edge="1" parent="1" source="RGW8HKInZTyzvHTBlCaB-283" target="RGW8HKInZTyzvHTBlCaB-270">
          <mxGeometry width="50" height="50" relative="1" as="geometry">
            <mxPoint x="2040" y="615" as="sourcePoint" />
            <mxPoint x="1950" y="640" as="targetPoint" />
          </mxGeometry>
        </mxCell>
        <mxCell id="RGW8HKInZTyzvHTBlCaB-285" value="" style="endArrow=none;html=1;entryX=0.5;entryY=1;entryDx=0;entryDy=0;exitX=1;exitY=0.5;exitDx=0;exitDy=0;exitPerimeter=0;" edge="1" parent="1" source="RGW8HKInZTyzvHTBlCaB-283" target="RGW8HKInZTyzvHTBlCaB-254">
          <mxGeometry width="50" height="50" relative="1" as="geometry">
            <mxPoint x="1690" y="695" as="sourcePoint" />
            <mxPoint x="1740" y="645" as="targetPoint" />
          </mxGeometry>
        </mxCell>
        <mxCell id="RGW8HKInZTyzvHTBlCaB-288" value="&lt;b&gt;&lt;font style=&quot;font-size: 15px&quot;&gt;&amp;nbsp; &amp;nbsp;Operand 1&lt;/font&gt;&lt;/b&gt;" style="rounded=0;whiteSpace=wrap;html=1;align=left;" vertex="1" parent="1">
          <mxGeometry x="-470" y="265" width="180" height="100" as="geometry" />
        </mxCell>
        <mxCell id="RGW8HKInZTyzvHTBlCaB-289" value="" style="rounded=0;whiteSpace=wrap;html=1;imageWidth=1;imageHeight=1;" vertex="1" parent="1">
          <mxGeometry x="-340" y="285" width="40" height="50" as="geometry" />
        </mxCell>
        <mxCell id="RGW8HKInZTyzvHTBlCaB-290" value="" style="rounded=0;whiteSpace=wrap;html=1;imageWidth=1;imageHeight=1;" vertex="1" parent="1">
          <mxGeometry x="-350" y="295" width="20" height="10" as="geometry" />
        </mxCell>
        <mxCell id="RGW8HKInZTyzvHTBlCaB-291" value="" style="rounded=0;whiteSpace=wrap;html=1;imageWidth=1;imageHeight=1;" vertex="1" parent="1">
          <mxGeometry x="-350" y="315" width="20" height="10" as="geometry" />
        </mxCell>
        <mxCell id="RGW8HKInZTyzvHTBlCaB-292" value="&lt;span style=&quot;font-size: 15px&quot;&gt;&lt;b&gt;&amp;nbsp; &amp;nbsp;Operand 2&lt;/b&gt;&lt;/span&gt;" style="rounded=0;whiteSpace=wrap;html=1;align=left;" vertex="1" parent="1">
          <mxGeometry x="-470" y="490" width="180" height="100" as="geometry" />
        </mxCell>
        <mxCell id="RGW8HKInZTyzvHTBlCaB-293" value="" style="rounded=0;whiteSpace=wrap;html=1;imageWidth=1;imageHeight=1;" vertex="1" parent="1">
          <mxGeometry x="-340" y="510" width="40" height="50" as="geometry" />
        </mxCell>
        <mxCell id="RGW8HKInZTyzvHTBlCaB-294" value="" style="rounded=0;whiteSpace=wrap;html=1;imageWidth=1;imageHeight=1;" vertex="1" parent="1">
          <mxGeometry x="-350" y="520" width="20" height="10" as="geometry" />
        </mxCell>
        <mxCell id="RGW8HKInZTyzvHTBlCaB-295" value="" style="rounded=0;whiteSpace=wrap;html=1;imageWidth=1;imageHeight=1;" vertex="1" parent="1">
          <mxGeometry x="-350" y="540" width="20" height="10" as="geometry" />
        </mxCell>
        <mxCell id="RGW8HKInZTyzvHTBlCaB-296" value="&lt;span style=&quot;font-size: 15px&quot;&gt;&lt;b&gt;&amp;nbsp; &amp;nbsp;Operator&lt;/b&gt;&lt;/span&gt;" style="rounded=0;whiteSpace=wrap;html=1;align=left;" vertex="1" parent="1">
          <mxGeometry x="-670" y="365" width="180" height="100" as="geometry" />
        </mxCell>
        <mxCell id="RGW8HKInZTyzvHTBlCaB-297" value="" style="rounded=0;whiteSpace=wrap;html=1;imageWidth=1;imageHeight=1;" vertex="1" parent="1">
          <mxGeometry x="-540" y="385" width="40" height="50" as="geometry" />
        </mxCell>
        <mxCell id="RGW8HKInZTyzvHTBlCaB-298" value="" style="rounded=0;whiteSpace=wrap;html=1;imageWidth=1;imageHeight=1;" vertex="1" parent="1">
          <mxGeometry x="-550" y="395" width="20" height="10" as="geometry" />
        </mxCell>
        <mxCell id="RGW8HKInZTyzvHTBlCaB-299" value="" style="rounded=0;whiteSpace=wrap;html=1;imageWidth=1;imageHeight=1;" vertex="1" parent="1">
          <mxGeometry x="-550" y="415" width="20" height="10" as="geometry" />
        </mxCell>
        <mxCell id="RGW8HKInZTyzvHTBlCaB-303" value="" style="endArrow=none;html=1;endFill=0;entryX=1;entryY=0.5;entryDx=0;entryDy=0;exitX=0;exitY=0.5;exitDx=0;exitDy=0;exitPerimeter=0;" edge="1" parent="1" source="RGW8HKInZTyzvHTBlCaB-304" target="RGW8HKInZTyzvHTBlCaB-296">
          <mxGeometry width="50" height="50" relative="1" as="geometry">
            <mxPoint x="-200" y="390" as="sourcePoint" />
            <mxPoint x="-370" y="500" as="targetPoint" />
          </mxGeometry>
        </mxCell>
        <mxCell id="RGW8HKInZTyzvHTBlCaB-304" value="" style="shape=providedRequiredInterface;html=1;verticalLabelPosition=bottom;direction=east;" vertex="1" parent="1">
          <mxGeometry x="-200" y="405" width="20" height="20" as="geometry" />
        </mxCell>
        <mxCell id="RGW8HKInZTyzvHTBlCaB-305" value="" style="endArrow=none;html=1;entryX=0;entryY=0.5;entryDx=0;entryDy=0;exitX=1;exitY=0.5;exitDx=0;exitDy=0;exitPerimeter=0;" edge="1" parent="1" source="RGW8HKInZTyzvHTBlCaB-304" target="RGW8HKInZTyzvHTBlCaB-82">
          <mxGeometry width="50" height="50" relative="1" as="geometry">
            <mxPoint x="-240" y="420" as="sourcePoint" />
            <mxPoint x="-190" y="370" as="targetPoint" />
          </mxGeometry>
        </mxCell>
        <mxCell id="RGW8HKInZTyzvHTBlCaB-307" value="" style="endArrow=none;html=1;entryX=1;entryY=0.5;entryDx=0;entryDy=0;" edge="1" parent="1" target="RGW8HKInZTyzvHTBlCaB-288">
          <mxGeometry width="50" height="50" relative="1" as="geometry">
            <mxPoint x="-210" y="420" as="sourcePoint" />
            <mxPoint x="-190" y="370" as="targetPoint" />
            <Array as="points">
              <mxPoint x="-210" y="315" />
            </Array>
          </mxGeometry>
        </mxCell>
        <mxCell id="RGW8HKInZTyzvHTBlCaB-308" value="" style="endArrow=none;html=1;exitX=0.5;exitY=0;exitDx=0;exitDy=0;" edge="1" parent="1" source="RGW8HKInZTyzvHTBlCaB-292">
          <mxGeometry width="50" height="50" relative="1" as="geometry">
            <mxPoint x="-240" y="510" as="sourcePoint" />
            <mxPoint x="-210" y="420" as="targetPoint" />
            <Array as="points">
              <mxPoint x="-380" y="460" />
              <mxPoint x="-210" y="460" />
            </Array>
          </mxGeometry>
        </mxCell>
        <mxCell id="RGW8HKInZTyzvHTBlCaB-331" value="&lt;b&gt;&lt;font style=&quot;font-size: 15px&quot;&gt;&amp;nbsp; &amp;nbsp;Operand 1&lt;/font&gt;&lt;/b&gt;" style="rounded=0;whiteSpace=wrap;html=1;align=left;" vertex="1" parent="1">
          <mxGeometry x="1750" y="210" width="180" height="100" as="geometry" />
        </mxCell>
        <mxCell id="RGW8HKInZTyzvHTBlCaB-332" value="" style="rounded=0;whiteSpace=wrap;html=1;imageWidth=1;imageHeight=1;" vertex="1" parent="1">
          <mxGeometry x="1880" y="230" width="40" height="50" as="geometry" />
        </mxCell>
        <mxCell id="RGW8HKInZTyzvHTBlCaB-333" value="" style="rounded=0;whiteSpace=wrap;html=1;imageWidth=1;imageHeight=1;" vertex="1" parent="1">
          <mxGeometry x="1870" y="240" width="20" height="10" as="geometry" />
        </mxCell>
        <mxCell id="RGW8HKInZTyzvHTBlCaB-334" value="" style="rounded=0;whiteSpace=wrap;html=1;imageWidth=1;imageHeight=1;" vertex="1" parent="1">
          <mxGeometry x="1870" y="260" width="20" height="10" as="geometry" />
        </mxCell>
        <mxCell id="RGW8HKInZTyzvHTBlCaB-335" value="&lt;span style=&quot;font-size: 15px&quot;&gt;&lt;b&gt;&amp;nbsp; &amp;nbsp;Chioice(opt)&lt;/b&gt;&lt;/span&gt;" style="rounded=0;whiteSpace=wrap;html=1;align=left;" vertex="1" parent="1">
          <mxGeometry x="1800" y="360" width="180" height="100" as="geometry" />
        </mxCell>
        <mxCell id="RGW8HKInZTyzvHTBlCaB-336" value="" style="rounded=0;whiteSpace=wrap;html=1;imageWidth=1;imageHeight=1;" vertex="1" parent="1">
          <mxGeometry x="1930" y="380" width="40" height="50" as="geometry" />
        </mxCell>
        <mxCell id="RGW8HKInZTyzvHTBlCaB-337" value="" style="rounded=0;whiteSpace=wrap;html=1;imageWidth=1;imageHeight=1;" vertex="1" parent="1">
          <mxGeometry x="1920" y="390" width="20" height="10" as="geometry" />
        </mxCell>
        <mxCell id="RGW8HKInZTyzvHTBlCaB-338" value="" style="rounded=0;whiteSpace=wrap;html=1;imageWidth=1;imageHeight=1;" vertex="1" parent="1">
          <mxGeometry x="1920" y="410" width="20" height="10" as="geometry" />
        </mxCell>
        <mxCell id="RGW8HKInZTyzvHTBlCaB-339" value="" style="endArrow=none;html=1;endFill=0;entryX=0;entryY=0.5;entryDx=0;entryDy=0;exitX=0;exitY=0.5;exitDx=0;exitDy=0;exitPerimeter=0;" edge="1" parent="1" source="RGW8HKInZTyzvHTBlCaB-340" target="RGW8HKInZTyzvHTBlCaB-335">
          <mxGeometry width="50" height="50" relative="1" as="geometry">
            <mxPoint x="2490" y="365" as="sourcePoint" />
            <mxPoint x="2320" y="475" as="targetPoint" />
          </mxGeometry>
        </mxCell>
        <mxCell id="RGW8HKInZTyzvHTBlCaB-340" value="" style="shape=providedRequiredInterface;html=1;verticalLabelPosition=bottom;direction=west;" vertex="1" parent="1">
          <mxGeometry x="1700" y="400" width="20" height="20" as="geometry" />
        </mxCell>
        <mxCell id="RGW8HKInZTyzvHTBlCaB-341" value="" style="endArrow=none;html=1;entryX=0;entryY=0.5;entryDx=0;entryDy=0;" edge="1" parent="1" target="RGW8HKInZTyzvHTBlCaB-331">
          <mxGeometry width="50" height="50" relative="1" as="geometry">
            <mxPoint x="1730" y="410" as="sourcePoint" />
            <mxPoint x="2500" y="345" as="targetPoint" />
            <Array as="points">
              <mxPoint x="1730" y="350" />
              <mxPoint x="1730" y="260" />
            </Array>
          </mxGeometry>
        </mxCell>
        <mxCell id="RGW8HKInZTyzvHTBlCaB-343" value="" style="endArrow=none;html=1;entryX=1;entryY=0.5;entryDx=0;entryDy=0;entryPerimeter=0;" edge="1" parent="1" target="RGW8HKInZTyzvHTBlCaB-340">
          <mxGeometry width="50" height="50" relative="1" as="geometry">
            <mxPoint x="1610" y="410" as="sourcePoint" />
            <mxPoint x="1540" y="370" as="targetPoint" />
          </mxGeometry>
        </mxCell>
        <mxCell id="RGW8HKInZTyzvHTBlCaB-345" value="&lt;span style=&quot;font-size: 15px&quot;&gt;&lt;b&gt;&amp;nbsp; &amp;nbsp;Choice(finop)&lt;/b&gt;&lt;/span&gt;" style="rounded=0;whiteSpace=wrap;html=1;align=left;" vertex="1" parent="1">
          <mxGeometry x="1060" y="365" width="180" height="100" as="geometry" />
        </mxCell>
        <mxCell id="RGW8HKInZTyzvHTBlCaB-346" value="" style="rounded=0;whiteSpace=wrap;html=1;imageWidth=1;imageHeight=1;" vertex="1" parent="1">
          <mxGeometry x="1190" y="385" width="40" height="50" as="geometry" />
        </mxCell>
        <mxCell id="RGW8HKInZTyzvHTBlCaB-347" value="" style="rounded=0;whiteSpace=wrap;html=1;imageWidth=1;imageHeight=1;" vertex="1" parent="1">
          <mxGeometry x="1180" y="395" width="20" height="10" as="geometry" />
        </mxCell>
        <mxCell id="RGW8HKInZTyzvHTBlCaB-348" value="" style="rounded=0;whiteSpace=wrap;html=1;imageWidth=1;imageHeight=1;" vertex="1" parent="1">
          <mxGeometry x="1180" y="415" width="20" height="10" as="geometry" />
        </mxCell>
        <mxCell id="RGW8HKInZTyzvHTBlCaB-349" value="" style="endArrow=none;html=1;endFill=0;entryX=0;entryY=0.5;entryDx=0;entryDy=0;exitX=0;exitY=0.5;exitDx=0;exitDy=0;exitPerimeter=0;" edge="1" parent="1" source="RGW8HKInZTyzvHTBlCaB-350" target="RGW8HKInZTyzvHTBlCaB-345">
          <mxGeometry width="50" height="50" relative="1" as="geometry">
            <mxPoint x="1710" y="350" as="sourcePoint" />
            <mxPoint x="1540" y="460" as="targetPoint" />
          </mxGeometry>
        </mxCell>
        <mxCell id="RGW8HKInZTyzvHTBlCaB-350" value="" style="shape=providedRequiredInterface;html=1;verticalLabelPosition=bottom;direction=west;" vertex="1" parent="1">
          <mxGeometry x="950" y="405" width="20" height="20" as="geometry" />
        </mxCell>
        <mxCell id="RGW8HKInZTyzvHTBlCaB-351" value="" style="endArrow=none;html=1;exitX=1;exitY=0.5;exitDx=0;exitDy=0;entryX=1;entryY=0.5;entryDx=0;entryDy=0;entryPerimeter=0;" edge="1" parent="1" source="RGW8HKInZTyzvHTBlCaB-197" target="RGW8HKInZTyzvHTBlCaB-350">
          <mxGeometry width="50" height="50" relative="1" as="geometry">
            <mxPoint x="1090" y="440" as="sourcePoint" />
            <mxPoint x="1140" y="390" as="targetPoint" />
          </mxGeometry>
        </mxCell>
        <mxCell id="RGW8HKInZTyzvHTBlCaB-352" value="" style="shape=providedRequiredInterface;html=1;verticalLabelPosition=bottom;direction=north;" vertex="1" parent="1">
          <mxGeometry x="780" y="275" width="20" height="20" as="geometry" />
        </mxCell>
        <mxCell id="RGW8HKInZTyzvHTBlCaB-353" value="" style="endArrow=none;html=1;entryX=0.5;entryY=1;entryDx=0;entryDy=0;exitX=1;exitY=0.5;exitDx=0;exitDy=0;exitPerimeter=0;" edge="1" parent="1" source="RGW8HKInZTyzvHTBlCaB-352" target="RGW8HKInZTyzvHTBlCaB-73">
          <mxGeometry width="50" height="50" relative="1" as="geometry">
            <mxPoint x="700" y="400" as="sourcePoint" />
            <mxPoint x="700" y="185" as="targetPoint" />
          </mxGeometry>
        </mxCell>
        <mxCell id="RGW8HKInZTyzvHTBlCaB-355" value="" style="endArrow=halfCircle;html=1;exitX=0;exitY=0.5;exitDx=0;exitDy=0;exitPerimeter=0;endFill=0;" edge="1" parent="1" source="RGW8HKInZTyzvHTBlCaB-352">
          <mxGeometry width="50" height="50" relative="1" as="geometry">
            <mxPoint x="670" y="570" as="sourcePoint" />
            <mxPoint x="790" y="370" as="targetPoint" />
          </mxGeometry>
        </mxCell>
        <mxCell id="RGW8HKInZTyzvHTBlCaB-356" value="" style="endArrow=halfCircle;html=1;endFill=0;entryX=0.5;entryY=0;entryDx=0;entryDy=0;exitX=0;exitY=0.5;exitDx=0;exitDy=0;exitPerimeter=0;" edge="1" parent="1" source="RGW8HKInZTyzvHTBlCaB-360" target="RGW8HKInZTyzvHTBlCaB-254">
          <mxGeometry width="50" height="50" relative="1" as="geometry">
            <mxPoint x="1070" y="250" as="sourcePoint" />
            <mxPoint x="430" y="375" as="targetPoint" />
          </mxGeometry>
        </mxCell>
        <mxCell id="RGW8HKInZTyzvHTBlCaB-357" value="" style="endArrow=halfCircle;html=1;exitX=0;exitY=0.5;exitDx=0;exitDy=0;exitPerimeter=0;endFill=0;entryX=0.5;entryY=0;entryDx=0;entryDy=0;" edge="1" parent="1" source="RGW8HKInZTyzvHTBlCaB-358" target="RGW8HKInZTyzvHTBlCaB-82">
          <mxGeometry width="50" height="50" relative="1" as="geometry">
            <mxPoint x="230" y="300" as="sourcePoint" />
            <mxPoint x="130" y="365" as="targetPoint" />
          </mxGeometry>
        </mxCell>
        <mxCell id="RGW8HKInZTyzvHTBlCaB-358" value="" style="shape=providedRequiredInterface;html=1;verticalLabelPosition=bottom;direction=north;" vertex="1" parent="1">
          <mxGeometry x="110" y="235" width="20" height="20" as="geometry" />
        </mxCell>
        <mxCell id="RGW8HKInZTyzvHTBlCaB-359" value="" style="endArrow=none;html=1;entryX=0.5;entryY=1;entryDx=0;entryDy=0;exitX=1;exitY=0.5;exitDx=0;exitDy=0;exitPerimeter=0;" edge="1" parent="1" source="RGW8HKInZTyzvHTBlCaB-358" target="RGW8HKInZTyzvHTBlCaB-73">
          <mxGeometry width="50" height="50" relative="1" as="geometry">
            <mxPoint x="420" y="330" as="sourcePoint" />
            <mxPoint x="530" y="59.999999999999886" as="targetPoint" />
          </mxGeometry>
        </mxCell>
        <mxCell id="RGW8HKInZTyzvHTBlCaB-360" value="" style="shape=providedRequiredInterface;html=1;verticalLabelPosition=bottom;direction=north;" vertex="1" parent="1">
          <mxGeometry x="1460" y="220" width="20" height="20" as="geometry" />
        </mxCell>
        <mxCell id="RGW8HKInZTyzvHTBlCaB-361" value="" style="endArrow=none;html=1;exitX=1;exitY=0.5;exitDx=0;exitDy=0;exitPerimeter=0;" edge="1" parent="1" source="RGW8HKInZTyzvHTBlCaB-360">
          <mxGeometry width="50" height="50" relative="1" as="geometry">
            <mxPoint x="920" y="320" as="sourcePoint" />
            <mxPoint x="810" y="130" as="targetPoint" />
          </mxGeometry>
        </mxCell>
        <mxCell id="RGW8HKInZTyzvHTBlCaB-362" value="&lt;span style=&quot;font-size: 15px&quot;&gt;&lt;b&gt;&amp;nbsp; &amp;nbsp; Output&lt;/b&gt;&lt;/span&gt;" style="rounded=0;whiteSpace=wrap;html=1;align=left;" vertex="1" parent="1">
          <mxGeometry x="2100" y="100" width="180" height="100" as="geometry" />
        </mxCell>
        <mxCell id="RGW8HKInZTyzvHTBlCaB-363" value="" style="rounded=0;whiteSpace=wrap;html=1;imageWidth=1;imageHeight=1;" vertex="1" parent="1">
          <mxGeometry x="2230" y="120" width="40" height="50" as="geometry" />
        </mxCell>
        <mxCell id="RGW8HKInZTyzvHTBlCaB-364" value="" style="rounded=0;whiteSpace=wrap;html=1;imageWidth=1;imageHeight=1;" vertex="1" parent="1">
          <mxGeometry x="2220" y="130" width="20" height="10" as="geometry" />
        </mxCell>
        <mxCell id="RGW8HKInZTyzvHTBlCaB-365" value="" style="rounded=0;whiteSpace=wrap;html=1;imageWidth=1;imageHeight=1;" vertex="1" parent="1">
          <mxGeometry x="2220" y="150" width="20" height="10" as="geometry" />
        </mxCell>
        <mxCell id="RGW8HKInZTyzvHTBlCaB-366" value="" style="endArrow=none;html=1;startArrow=halfCircle;startFill=0;exitX=1;exitY=0.5;exitDx=0;exitDy=0;" edge="1" parent="1" source="RGW8HKInZTyzvHTBlCaB-73">
          <mxGeometry width="50" height="50" relative="1" as="geometry">
            <mxPoint x="980" y="80" as="sourcePoint" />
            <mxPoint x="1000" y="80" as="targetPoint" />
          </mxGeometry>
        </mxCell>
        <mxCell id="RGW8HKInZTyzvHTBlCaB-367" value="" style="endArrow=oval;html=1;startArrow=box;startFill=0;endFill=0;" edge="1" parent="1">
          <mxGeometry width="50" height="50" relative="1" as="geometry">
            <mxPoint x="1000" y="80" as="sourcePoint" />
            <mxPoint x="1100" y="80" as="targetPoint" />
          </mxGeometry>
        </mxCell>
        <mxCell id="RGW8HKInZTyzvHTBlCaB-368" value="" style="endArrow=box;html=1;startArrow=halfCircle;startFill=0;endFill=0;" edge="1" parent="1">
          <mxGeometry width="50" height="50" relative="1" as="geometry">
            <mxPoint x="1940" y="150" as="sourcePoint" />
            <mxPoint x="2030" y="150" as="targetPoint" />
          </mxGeometry>
        </mxCell>
        <mxCell id="RGW8HKInZTyzvHTBlCaB-370" value="" style="endArrow=none;dashed=1;html=1;dashPattern=1 3;strokeWidth=2;startArrow=classic;startFill=1;" edge="1" parent="1">
          <mxGeometry width="50" height="50" relative="1" as="geometry">
            <mxPoint x="1100" y="70" as="sourcePoint" />
            <mxPoint x="1920" y="140" as="targetPoint" />
            <Array as="points">
              <mxPoint x="1100" y="30" />
              <mxPoint x="1920" y="30" />
            </Array>
          </mxGeometry>
        </mxCell>
        <mxCell id="RGW8HKInZTyzvHTBlCaB-373" value="" style="endArrow=none;dashed=1;html=1;dashPattern=1 3;strokeWidth=2;startArrow=classic;startFill=1;" edge="1" parent="1">
          <mxGeometry width="50" height="50" relative="1" as="geometry">
            <mxPoint x="1940" y="150" as="sourcePoint" />
            <mxPoint x="1110" y="80" as="targetPoint" />
            <Array as="points">
              <mxPoint x="1540" y="150" />
              <mxPoint x="1430" y="80" />
            </Array>
          </mxGeometry>
        </mxCell>
        <mxCell id="RGW8HKInZTyzvHTBlCaB-374" value="" style="endArrow=none;html=1;entryX=0;entryY=0.5;entryDx=0;entryDy=0;" edge="1" parent="1" target="RGW8HKInZTyzvHTBlCaB-362">
          <mxGeometry width="50" height="50" relative="1" as="geometry">
            <mxPoint x="2030" y="150" as="sourcePoint" />
            <mxPoint x="1490" y="170" as="targetPoint" />
          </mxGeometry>
        </mxCell>
      </root>
    </mxGraphModel>
  </diagram>
</mxfile>
